**ABCDEFGHIJKLMNOPQRSTUVWXYZabcdefghijklmnopqrstuvwxyz**************************
**PARASOLID !"#$%&'()*+,-./:;<=>?@[\]^_`{|}~0123456789**************************
**PART1;
MC=unknown;
MC_MODEL=unknown;
MC_ID=unknown;
OS=unknown;
OS_RELEASE=unknown;
FRU=Parasolid 28.1.231;
APPL=Onshape;
SITE=unknown;
USER=unknown;
FORMAT=text;
GUISE=transmit;
KEY=BTGapi::writeModels_.xmt;
FILE=BTGapi::writeModels_.xmt;
DATE=2016-07-21T03:02:49 (UTC);
**PART2;
SCH=SCH_2801231_28101;
USFLD_SIZE=0;
**PART3;
**END_OF_HEADER*****************************************************************
T51 : TRANSMIT FILE created by modeller version 280123123 SCH_2801231_28101_1300
6203 0 12 33 CCCCCCI4 mesh1006 0 I8 polyline1008 0 CCCCCCCDI5 owner1040 0 CCCCCC
I13 boundary_mesh1006 0 I17 boundary_polyline1008 0 CCCA16 index_map_offset0 0 1
 dA9 index_map82 0 A17 node_id_index_map82 0 A20 schema_embedding_map82 0 A5 chi
ld12 0 A14 lowest_node_id0 0 1 dZ1 154 2 3 0 0 0 0 0 0 1e3 1e-8 0 4 0 1 0 1 1 5
 6 7 0 0 0 8 9 0 0 0 0 0 0 0 81 255 1 2 150 10 1 11 0 0 0 12 70 11 CI9 list_type
0 0 1 uI10 notransmit0 0 1 lCCCDCCDI12 finger_index0 0 1 dI12 finger_block1012 0
 CZ3 0 4 T1 0 0 4 20 1 13 13 13 255 5 3 0 1 0 14 0 0 15 0 51 255 6 127 0 16 17 0
 0 +.235500000000028 .1623326822519255 .1519999999999545 53028761936245e-30 1 -3
061616997868325e-32 .004 -1 53028761936245e-30 0 31 255 7 116 0 18 19 0 0 +.2355
00000000028 .1673326822519255 .1519999999999545 53028761936245e-30 1 -3061616997
868325e-32 -1 53028761936245e-30 -1623537589199205e-48 .0018 19 8 CCCCCCCA5 owne
r12 0 Z8 2 0 1 15 0 20 V0 16 255 9 9 21 ?22 0 23 24 0 0 1 81 1 21 141 25 9 0 0 2
6 27 28 17 255 22 0 29 22 22 0 30 9 0 0 +16 23 12 31 ?32 9 18 33 0 0 1 31 24 49
 0 9 33 19 0 +.235500000000028 .1623326822519255 .1519999999999545 5302876193624
5e-30 1 -3061616997868325e-32 -1 53028761936245e-30 -1623537589199205e-48 .0018
 31 33 48 0 23 0 24 0 +.235500000000028 .1623326822519255 .1519999999999545 5302
8761936245e-30 1 -3061616997868325e-32 -1 53028761936245e-30 -1623537589199205e-
48 .004 31 19 117 0 34 24 7 0 +.235500000000028 .1673326822519255 .1519999999999
545 53028761936245e-30 1 -3061616997868325e-32 -1 53028761936245e-30 -1623537589
199205e-48 .004 16 34 101 27 ?35 18 0 19 0 0 1 81 1 27 142 25 34 0 0 21 31 36 17
 35 0 37 35 35 0 38 34 0 0 +16 18 97 26 ?39 23 34 7 0 0 1 81 1 26 140 25 18 0 0
 0 21 40 17 39 0 41 39 39 0 42 18 0 0 +15 255 41 120 0 39 14 0 17 42 0 43 42 42
 0 39 18 0 0 -15 43 95 0 42 44 37 14 255 44 85 45 ?0 46 43 5 47 +0 0 0 46 20 15
 37 96 0 35 44 0 81 1 45 154 48 44 49 0 50 0 51 14 46 4 50 ?44 16 29 5 52 -0 0 4
4 16 20 50 255 47 115 0 44 52 17 0 +.2165000000000275 .1673326822519255 .0891756
003449827 53028761936245e-30 1 -3061616997868325e-32 -1 53028761936245e-30 -1623
537589199205e-48 13 20 128 0 0 0 0 0 0 8 14 14 14 119 53 ?16 0 54 5 17 -0 0 16 0
 20 81 1 53 151 48 14 55 0 0 56 57 14 16 123 56 ?46 14 58 5 6 +0 0 46 14 20 15 5
4 118 0 30 14 41 51 17 126 0 14 47 6 0 +.235500000000028 .1623326822519255 .1519
999999999545 53028761936245e-30 1 -3061616997868325e-32 .0018 -1 53028761936245e
-30 0 17 30 0 54 30 30 0 22 9 0 0 -81 1 56 152 48 16 59 0 53 50 60 15 58 122 0 3
2 16 61 17 32 0 58 32 32 0 62 23 0 0 +15 61 124 0 38 16 0 17 38 0 61 38 38 0 35
 34 0 0 -17 62 0 63 62 62 0 32 23 0 0 -15 63 8 0 62 46 0 80 255 1 48 0 64 8001 0
 0 0 0 3 5 0 0 0 FFFFTFTFFFFFFF2 81 1 59 147 25 16 0 56 65 66 67 81 1 50 153 48
 46 65 0 56 45 68 83 255 3 60 .811764705882353 .858823529411765 .898039215686275
 81 1 65 146 25 46 0 50 49 59 69 83 3 68 .811764705882353 .858823529411765 .8980
39215686275 80 1 25 70 71 9000 0 0 0 0 3 6 0 0 0 FFTFTFTTFFFFFF1 81 1 49 145 25
 44 0 45 55 65 72 82 255 3 69 191 2 2 81 1 55 144 25 14 0 53 31 49 73 82 3 72 19
1 1 2 81 1 31 143 25 23 0 0 27 55 74 82 3 73 191 0 2 82 3 74 191 3 1 79 255 9 71
 BTI/DetId81 1 66 148 25 1 0 11 59 0 75 82 3 67 191 3 2 81 1 11 149 76 1 66 2 0
 0 77 82 3 75 191 0 3 80 1 76 10 78 8038 0 0 0 0 0 0 0 0 0 TTTTTTTTTTTTTF10 98 2
55 7 77 80 97 114 116 32 52 56 79 14 78 SDL/TYSA_UNAME79 15 64 SDL/TYSA_COLOUR83
 3 57 .811764705882353 .858823529411765 .898039215686275 50 52 56 0 46 0 47 0 +.
2165000000000275 .1623326822519255 .0891756003449827 53028761936245e-30 1 -30616
16997868325e-32 -1 53028761936245e-30 -1623537589199205e-48 15 29 7 0 22 46 63 8
3 3 51 .811764705882353 .858823529411765 .898039215686275 82 3 40 191 0 1 82 3 3
6 191 2 1 82 3 28 191 1 1 19 15 129 0 1 0 8 5 S0 74 4 CI16 index_map_offset0 0 1
 dCCZ20 13 4 0 0 66 11 2 45 0 0 0 0 0 0 0 0 0 0 0 0 0 0 0 0 80 1 10 79 80 8017 0
 0 0 0 0 0 0 0 0 TTTTTTTTTTTTTF3 84 255 7 12 Part 4879 13 80 SDL/TYSA_NAME1 0 
